<!-- Generated by Claude Code -->
<svg xmlns="http://www.w3.org/2000/svg" viewBox="0 0 64 64" width="64" height="64">
  <!-- Top-left node -->
  <rect x="4" y="4" width="18" height="18" rx="4" fill="#3f51b5"/>
  <circle cx="13" cy="13" r="4" fill="#fff"/>
  <!-- Top-right node -->
  <rect x="42" y="4" width="18" height="18" rx="4" fill="#3f51b5"/>
  <circle cx="51" cy="13" r="4" fill="#fff"/>
  <!-- Bottom-left node -->
  <rect x="4" y="42" width="18" height="18" rx="4" fill="#3f51b5"/>
  <circle cx="13" cy="51" r="4" fill="#fff"/>
  <!-- Bottom-right node -->
  <rect x="42" y="42" width="18" height="18" rx="4" fill="#3f51b5"/>
  <circle cx="51" cy="51" r="4" fill="#fff"/>
  <!-- Horizontal arrows -->
  <line x1="22" y1="13" x2="38" y2="13" stroke="#3f51b5" stroke-width="2.5" stroke-linecap="round"/>
  <polygon points="42,13 36,10 36,16" fill="#3f51b5"/>
  <line x1="22" y1="51" x2="38" y2="51" stroke="#3f51b5" stroke-width="2.5" stroke-linecap="round"/>
  <polygon points="42,51 36,48 36,54" fill="#3f51b5"/>
  <!-- Vertical arrows -->
  <line x1="13" y1="22" x2="13" y2="38" stroke="#3f51b5" stroke-width="2.5" stroke-linecap="round"/>
  <polygon points="13,42 10,36 16,36" fill="#3f51b5"/>
  <line x1="51" y1="22" x2="51" y2="38" stroke="#3f51b5" stroke-width="2.5" stroke-linecap="round"/>
  <polygon points="51,42 48,36 54,36" fill="#3f51b5"/>
</svg>
